HIERARCHY
ROOT Hips
{
	OFFSET -0.001795 -0.223333 0.028219
	CHANNELS 6 Xposition Yposition Zposition Zrotation Yrotation Xrotation 
	JOINT LeftUpLeg
	{
		OFFSET 0.069520 -0.091406 -0.006815
		CHANNELS 3 Zrotation Yrotation Xrotation
		JOINT LeftLeg
		{
			OFFSET 0.034277 -0.375199 -0.004496
			CHANNELS 3 Zrotation Yrotation Xrotation
			JOINT LeftFoot
			{
				OFFSET -0.013596 -0.397961 -0.043693
				CHANNELS 3 Zrotation Yrotation Xrotation
				JOINT LeftToe
				{
					OFFSET 0.026358 -0.055791 0.119288
					CHANNELS 3 Zrotation Yrotation Xrotation
					End Site
					{
						OFFSET 0.000000 0.000000 0.000000
					}
				}
			}
		}
	}
	JOINT RightUpLeg
	{
		OFFSET -0.067670 -0.090522 -0.004320
		CHANNELS 3 Zrotation Yrotation Xrotation
		JOINT RightLeg
		{
			OFFSET -0.038290 -0.382569 -0.008850
			CHANNELS 3 Zrotation Yrotation Xrotation
			JOINT RightFoot
			{
				OFFSET 0.015774 -0.398415 -0.042312
				CHANNELS 3 Zrotation Yrotation Xrotation
				JOINT RightToe
				{
					OFFSET -0.025372 -0.048144 0.123348
					CHANNELS 3 Zrotation Yrotation Xrotation
					End Site
					{
						OFFSET 0.000000 0.000000 0.000000
					}
				}
			}
		}
	}
	JOINT Spine
	{
		OFFSET -0.002533 0.108963 -0.026696
		CHANNELS 3 Zrotation Yrotation Xrotation
		JOINT Spine1
		{
			OFFSET 0.005487 0.135180 0.001092
			CHANNELS 3 Zrotation Yrotation Xrotation
			JOINT Spine2
			{
				OFFSET 0.001457 0.052922 0.025425
				CHANNELS 3 Zrotation Yrotation Xrotation
				JOINT Neck
				{
					OFFSET -0.002778 0.213870 -0.042857
					CHANNELS 3 Zrotation Yrotation Xrotation
					JOINT Head
					{
						OFFSET 0.005152 0.064970 0.051349
						CHANNELS 3 Zrotation Yrotation Xrotation
						End Site
						{
							OFFSET 0.000000 0.000000 0.000000
						}
					}
				}
				JOINT LeftShoulder
				{
					OFFSET 0.078845 0.121749 -0.034090
					CHANNELS 3 Zrotation Yrotation Xrotation
					JOINT LeftArm
					{
						OFFSET 0.090977 0.030469 -0.008868
						CHANNELS 3 Zrotation Yrotation Xrotation
						JOINT LeftForeArm
						{
							OFFSET 0.259612 -0.012772 -0.027456
							CHANNELS 3 Zrotation Yrotation Xrotation
							JOINT LeftHand
							{
								OFFSET 0.249234 0.008986 -0.001171
								CHANNELS 3 Zrotation Yrotation Xrotation
								End Site
								{
									OFFSET 0.000000 0.000000 0.000000
								}
							}
						}
					}
				}
				JOINT RightShoulder
				{
					OFFSET -0.081759 0.118833 -0.038615
					CHANNELS 3 Zrotation Yrotation Xrotation
					JOINT RightArm
					{
						OFFSET -0.096012 0.032551 -0.009143
						CHANNELS 3 Zrotation Yrotation Xrotation
						JOINT RightForeArm
						{
							OFFSET -0.253742 -0.013329 -0.021401
							CHANNELS 3 Zrotation Yrotation Xrotation
							JOINT RightHand
							{
								OFFSET -0.255298 0.007772 -0.005559
								CHANNELS 3 Zrotation Yrotation Xrotation
								End Site
								{
									OFFSET 0.000000 0.000000 0.000000
								}
							}
						}
					}
				}
			}
		}
	}
}
MOTION
Frames: 9
Frame Time: 0.050000
0.000000 0.933839 0.000000 -0.299321 2.389679 6.338877 7.740658 -0.352380 -4.001325 -1.920319 0.109607 4.609597 0.782357 3.718975 4.905438 0.000000 0.000000 0.000000 -4.955294 0.488401 -5.585821 3.619640 -0.374014 3.876822 -4.825727 -13.469071 9.334448 0.000000 0.000000 0.000000 4.765539 0.245111 -4.897537 -2.215907 1.068403 -2.890567 -4.199312 4.909252 5.702009 6.032913 -2.853242 -9.973415 0.000000 0.000000 0.000000 -16.139573 -2.585250 -1.708169 -54.356836 -3.610237 -4.774353 -6.535254 -19.236735 1.583338 0.000000 0.000000 0.000000 13.888590 -4.051828 -2.057804 64.197230 5.212793 -3.000583 5.218881 22.069279 1.963404 0.000000 0.000000 0.000000 
0.000302 0.933101 -0.000039 -0.359032 1.839213 6.889309 8.175065 -0.340858 -3.367644 -2.754591 0.255729 2.648933 0.957640 4.061984 5.029994 0.000000 0.000000 0.000000 -4.898103 0.562587 -6.665590 3.457039 -0.338880 4.581176 -4.689857 -13.204074 8.989886 0.000000 0.000000 0.000000 5.929502 0.268294 -5.105480 -2.801483 1.320195 -3.450122 -5.498434 6.251724 5.621106 5.898794 -2.592992 -10.312831 0.000000 0.000000 0.000000 -16.626828 -2.308660 -2.213441 -53.352315 -3.667722 -4.565460 -6.775358 -19.551419 1.595279 0.000000 0.000000 0.000000 14.056738 -5.322449 -2.507298 65.433545 4.580014 -3.228595 5.193638 21.566013 1.955146 0.000000 0.000000 0.000000 
0.000520 0.933594 -0.000303 0.101114 2.259219 6.974971 7.757653 -0.367502 -4.254517 -2.809778 0.245728 3.848501 0.753752 3.748329 5.150835 0.000000 0.000000 0.000000 -5.424692 0.561715 -6.993389 3.566806 -0.358531 5.123691 -4.909946 -13.620141 9.110520 0.000000 0.000000 0.000000 5.280501 0.254319 -5.075029 -2.152924 1.052723 -4.478980 -6.049811 5.689686 6.189564 5.928135 -2.675657 -10.119866 0.000000 0.000000 0.000000 -16.395043 -2.358871 -2.078774 -53.596003 -3.922583 -4.557065 -5.869402 -18.344434 1.375178 0.000000 0.000000 0.000000 15.440295 -4.347530 -2.073137 63.639556 4.695134 -3.370084 5.215503 21.330705 1.927629 0.000000 0.000000 0.000000 
0.000756 0.933106 -0.000591 0.300050 2.402602 7.365404 7.968976 -0.387588 -4.703578 -3.536415 0.342330 3.805245 0.676825 3.611946 5.156483 0.000000 0.000000 0.000000 -5.550126 0.608307 -7.933031 3.399047 -0.329147 6.081841 -5.081607 -13.927896 8.910233 0.000000 0.000000 0.000000 5.375700 0.261146 -5.237920 -2.579519 1.230944 -4.165716 -6.087418 5.300115 5.281117 5.540576 -2.671375 -8.729620 0.000000 0.000000 0.000000 -16.404538 -2.171739 -2.140017 -53.928107 -4.438162 -4.274956 -4.663678 -18.518694 1.195181 0.000000 0.000000 0.000000 14.302779 -4.332929 -2.094486 64.494781 4.345419 -3.391497 5.325406 21.917449 1.991554 0.000000 0.000000 0.000000 
0.000956 0.933413 -0.001061 0.708339 3.014914 7.629335 7.395851 -0.411602 -5.013967 -3.161298 0.287236 3.586117 0.370990 3.143625 5.332990 0.000000 0.000000 0.000000 -5.909840 0.585738 -7.853423 3.360432 -0.333699 5.600698 -5.361391 -14.445686 9.080621 0.000000 0.000000 0.000000 4.755785 0.268198 -5.515214 -1.905139 0.952556 -4.286502 -6.685144 5.245686 5.308661 5.516897 -2.498305 -9.416342 0.000000 0.000000 0.000000 -16.074698 -2.296971 -2.109251 -53.966594 -5.210623 -3.940322 -4.887417 -17.826438 1.175165 0.000000 0.000000 0.000000 14.590372 -4.952421 -2.352591 64.266823 4.183265 -3.462187 5.544813 21.749378 2.032174 0.000000 0.000000 0.000000 
0.001209 0.933749 -0.001556 0.727301 2.891297 7.973444 7.178510 -0.428950 -5.464188 -2.886916 0.250744 3.696478 0.441284 3.312634 5.441078 0.000000 0.000000 0.000000 -5.793385 0.616879 -8.302755 3.044634 -0.280807 5.632749 -5.328564 -14.402976 9.215512 0.000000 0.000000 0.000000 4.794860 0.277253 -5.680819 -2.043790 1.011648 -4.521290 -6.752660 5.397900 5.299754 6.028343 -2.928220 -9.001758 0.000000 0.000000 0.000000 -16.364512 -2.351347 -2.157235 -53.563527 -5.730812 -3.649104 -4.501187 -17.354274 1.088029 0.000000 0.000000 0.000000 14.614300 -5.079003 -2.404769 64.240172 4.024024 -3.532929 5.658924 21.654299 2.042981 0.000000 0.000000 0.000000 
0.001465 0.933886 -0.002111 0.908841 3.003441 8.186895 6.972827 -0.444171 -5.740750 -2.872280 0.247768 3.674533 0.373150 3.233033 5.543627 0.000000 0.000000 0.000000 -5.843113 0.613856 -8.256387 2.767875 -0.242586 5.130128 -5.388362 -14.516551 9.283879 0.000000 0.000000 0.000000 4.586727 0.286711 -5.895122 -1.942528 0.964849 -4.170126 -6.996757 5.163869 5.026516 6.367529 -3.069505 -9.515365 0.000000 0.000000 0.000000 -15.973101 -2.154642 -2.161710 -53.692486 -5.936369 -3.566616 -4.808532 -18.046073 1.174207 0.000000 0.000000 0.000000 14.709547 -5.212051 -2.503455 64.255526 4.132372 -3.454132 5.670750 21.861648 2.064693 0.000000 0.000000 0.000000 
0.001788 0.933940 -0.002632 0.972079 2.962293 8.437455 6.665882 -0.469301 -6.299952 -2.508639 0.193106 4.135058 0.440325 3.345477 5.510452 0.000000 0.000000 0.000000 -5.789893 0.633645 -8.551669 2.490602 -0.198947 5.106170 -5.396271 -14.539110 9.318670 0.000000 0.000000 0.000000 4.457072 0.286408 -5.962676 -1.789472 0.901065 -4.306413 -7.121202 5.184406 5.113863 7.009331 -3.542865 -9.396751 0.000000 0.000000 0.000000 -15.917163 -2.159342 -2.149062 -53.108505 -5.872509 -3.549337 -5.891109 -19.538775 1.443820 0.000000 0.000000 0.000000 15.010103 -5.271432 -2.540734 64.470839 4.093976 -3.503632 5.654561 22.809825 2.180227 0.000000 0.000000 0.000000 
0.002172 0.933685 -0.003077 1.033729 2.724029 8.541844 6.523428 -0.476967 -6.511992 -2.492057 0.189796 4.344909 0.573793 3.551722 5.433916 0.000000 0.000000 0.000000 -5.652070 0.643105 -8.532677 2.015050 -0.128558 4.764314 -5.316962 -14.391592 9.184968 0.000000 0.000000 0.000000 4.353367 0.290296 -6.032830 -1.658681 0.841522 -4.196037 -7.225881 5.107868 5.175327 7.462514 -3.798736 -9.764323 0.000000 0.000000 0.000000 -15.328230 -1.769688 -2.183413 -53.321893 -5.843895 -3.624821 -7.251405 -21.713516 1.848850 0.000000 0.000000 0.000000 15.226966 -5.194260 -2.540762 64.404206 4.141424 -3.514245 5.682820 23.848420 2.306542 0.000000 0.000000 0.000000 
